<?xml version="1.0" encoding="iso-8859-1"?>
<!-- Uploaded to: SVG Repo, www.svgrepo.com, Generator: SVG Repo Mixer Tools -->
<svg version="1.1" id="Layer_1" xmlns="http://www.w3.org/2000/svg" xmlns:xlink="http://www.w3.org/1999/xlink" 
	 viewBox="0 0 508 508" xml:space="preserve">
<g>
	<path style="fill:#FFFFFF;" d="M326.6,392.05c-8.6,31.1-20.6,57.5-34.9,77.2c41-14,76.2-41.4,100.8-77.2L326.6,392.05L326.6,392.05
		z"/>
	<path style="fill:#FFFFFF;" d="M333.3,363.85h75.5c11.3-23.7,18.3-50,20.2-77.7h-87.5C340.8,313.65,338,339.85,333.3,363.85z"/>
	<path style="fill:#FFFFFF;" d="M297.3,392.05H243v84.3C263.5,466.55,283.7,436.45,297.3,392.05z"/>
	<rect x="243" y="180.25" style="fill:#FFFFFF;" width="54.4" height="77.7"/>
	<path style="fill:#FFFFFF;" d="M321.1,120.35h4.3v-30.7c-7.8-4-21.5-10.5-28.6-13.2C306.1,88.75,314.3,103.65,321.1,120.35z"/>
	<path style="fill:#FFFFFF;" d="M243,67.35v84.6h54.4C297.4,151.95,297.4,101.35,243,67.35z"/>
	<path style="fill:#FFFFFF;" d="M243,363.85h61.5c5-23.3,8.1-49.4,9-77.7h-1.9H243V363.85z"/>
	<path style="fill:#FFFFFF;" d="M65.3,151.95h65.9c8.6-31.1,20.6-57.5,34.9-77.2C125,88.85,89.8,116.25,65.3,151.95z"/>
	<path style="fill:#FFFFFF;" d="M166.1,469.25c-14.3-19.7-26.3-46.1-34.9-77.2H65.3C89.8,427.85,125,455.25,166.1,469.25z"/>
	<path style="fill:#FFFFFF;" d="M214.8,286.15h-70.5c0.8,28.3,4,54.4,9,77.7h61.5V286.15z"/>
	<path style="fill:#FFFFFF;" d="M160.5,151.95h54.3v-84.2C194.2,77.45,174,107.65,160.5,151.95z"/>
	<path style="fill:#FFFFFF;" d="M124.4,180.25H48.9c-11.3,23.7-18.4,50-20.2,77.7H116C116.8,230.35,119.7,204.25,124.4,180.25z"/>
	<path style="fill:#FFFFFF;" d="M28.7,286.15c1.8,27.7,8.9,54,20.2,77.7h75.5c-4.7-24-7.6-50.2-8.4-77.7H28.7z"/>
	<path style="fill:#FFFFFF;" d="M214.8,476.25v-84.3h-54.3C174,436.45,194.2,466.55,214.8,476.25z"/>
	<path style="fill:#FFFFFF;" d="M214.8,180.25h-61.5c-5,23.3-8.1,49.4-9,77.7h70.5V180.25z"/>
</g>
<path style="fill:#FFC10D;" d="M306.3,111.55c-24.1-12.6-50.2-19-77.4-19c-95.1,0-172.4,80.5-172.4,179.5s77.4,179.5,172.4,179.5
	s172.4-80.6,172.4-179.5"/>
<rect x="325.6" y="148.55" style="fill:#56ACE0;" width="154.1" height="109.4"/>
<path style="fill:#194F82;" d="M493.9,120.35h-13.8v-43c0-42.7-34.7-77.3-77.3-77.3c-36.4,0-66.9,25.3-75.1,59.2
	c-30.9-15.3-64.1-23.1-98.7-23.1C102.7,36.05,0,141.95,0,272.05s102.7,235.9,228.9,235.9c121.6,0,221.3-98.3,228.4-221.8h36.6
	c7.8,0,14.1-6.3,14.1-14.1v-137.6C508,126.65,501.7,120.35,493.9,120.35z M479.8,257.95H325.6v-109.4h154.1v109.4H479.8z
	 M325.4,120.35h-4.3c-6.7-16.7-14.9-31.6-24.3-43.8c7.2,2.7,20.8,9.1,28.6,13.2L325.4,120.35L325.4,120.35z M311.5,286.15h1.9
	c-0.8,28.3-4,54.4-9,77.7H243v-77.7H311.5z M243,257.95v-77.7h54.4v77.7H243z M243,151.95v-84.6c54.4,34,54.4,84.7,54.4,84.7H243
	V151.95z M243,392.05h54.3c-13.5,44.4-33.7,74.5-54.3,84.3L243,392.05L243,392.05z M291.7,469.25c14.3-19.7,26.3-46.1,34.9-77.2
	h65.9C367.9,427.85,332.7,455.25,291.7,469.25z M408.8,363.85h-75.5c4.7-24,7.5-50.2,8.2-77.7H429
	C427.2,313.85,420.1,340.15,408.8,363.85z M353.6,77.25c0-27.1,22-49.1,49.1-49.1s49.1,22,49.1,49.1v43h-98.3v-43H353.6z
	 M153.3,363.85c-5-23.3-8.1-49.4-9-77.7h70.5v77.7L153.3,363.85L153.3,363.85z M214.8,392.05v84.3c-20.5-9.7-40.7-39.9-54.3-84.3
	L214.8,392.05L214.8,392.05z M144.3,257.95c0.8-28.3,4-54.4,9-77.7h61.5v77.7H144.3z M131.1,151.95H65.3
	c24.6-35.8,59.8-63.2,100.8-77.2C151.7,94.45,139.8,120.85,131.1,151.95z M48.9,180.25h75.5c-4.7,24-7.6,50.2-8.4,77.7H28.7
	C30.5,230.15,37.6,203.95,48.9,180.25z M124.4,363.85H48.9c-11.3-23.7-18.4-50-20.2-77.7H116
	C116.8,313.65,119.7,339.75,124.4,363.85z M131.1,392.05c8.6,31.1,20.6,57.5,34.9,77.2c-41-14-76.2-41.4-100.8-77.2L131.1,392.05
	L131.1,392.05z M214.8,151.95h-54.3c13.5-44.4,33.7-74.5,54.3-84.3V151.95z"/>
</svg>